<svg xmlns="http://www.w3.org/2000/svg" xmlns:xlink="http://www.w3.org/1999/xlink" version="1.1" width="1000" height="1000" viewBox="0 0 1000 1000" xml:space="preserve">
<desc>Created with Fabric.js 3.5.0</desc>
<defs>
</defs>
<rect x="0" y="0" width="100%" height="100%" fill="rgba(255,255,255,0)"/>
<g transform="matrix(1.9423 0 0 1.5923 481.5348 524.6204)" id="559869">
<g style="" vector-effect="non-scaling-stroke">
		<g transform="matrix(1 0 0 1 140.9545 146.8933)">
<path style="stroke: none; stroke-width: 1; stroke-dasharray: none; stroke-linecap: butt; stroke-dashoffset: 0; stroke-linejoin: miter; stroke-miterlimit: 4; is-custom-font: none; font-file-url: none; fill: rgb(36,91,236); fill-rule: evenodd; opacity: 1;" transform=" translate(-620.9545, -489.8933)" d="M 658.667 320.667 C 657.62 321.714 657.888 326 659 326 C 659.55 326 660 324.65 660 323 C 660 319.893 659.796 319.537 658.667 320.667 M 657.985 355.5 C 657.82 366.503 657.415 373.251 657.084 370.5 L 656.482 365.5 L 654.347 369.5 C 651.339 375.135 647.874 381.52 644.036 388.5 C 642.221 391.8 639.193 397.403 637.305 400.952 C 634.784 405.692 632.592 408.267 629.041 410.658 C 626.383 412.449 621.426 416.489 618.026 419.636 C 610.205 426.878 599.271 442 601.856 442 C 602.366 442 603.048 440.945 603.371 439.657 C 603.695 438.368 604.997 436.23 606.264 434.907 C 607.532 433.583 610.528 430.114 612.922 427.197 C 619.438 419.259 632.148 409.889 642 405.759 C 650.327 402.269 651.638 401.824 657.277 400.567 L 660.053 399.948 L 659.856 371.724 C 659.619 337.731 658.407 327.229 657.985 355.5 M 663.203 406.441 C 637.858 411.248 616.233 428.991 606.188 453.221 C 602.726 461.569 602.008 478.757 604.466 494.428 L 606.132 505.052 L 598.066 513.673 C 593.63 518.415 590 522.946 590 523.743 C 590 524.539 590.953 526.53 592.119 528.167 L 594.238 531.143 L 591.787 533.821 C 548.921 580.674 518.274 613.992 512.975 619.5 C 507.101 625.606 506.165 627.101 505.646 631.206 C 505.318 633.795 505.467 636.17 505.976 636.485 C 507.418 637.376 519.838 625.127 536.38 606.5 C 544.683 597.15 562.732 577.349 576.488 562.497 C 590.245 547.646 602.625 534.084 604 532.36 C 606.454 529.284 611 526.967 611 528.793 C 611 530.585 605.679 537.533 598.986 544.482 C 595.268 548.342 577.263 567.925 558.974 588 C 540.686 608.075 521.983 628.325 517.413 633 C 508.189 642.435 507 644.67 507 652.565 L 507 658 L 512.428 658 C 515.413 658 521.327 658.483 525.569 659.073 C 529.812 659.663 534.336 659.881 535.623 659.558 C 538.345 658.875 540.55 655.085 541.496 649.465 C 541.863 647.284 542.814 643.138 543.61 640.25 L 545.056 635 L 552.778 635.006 L 560.5 635.012 L 568.363 626.756 C 572.687 622.215 578.312 616.067 580.863 613.094 L 585.5 607.687 L 585.476 598.844 C 585.461 593.437 585.85 590.014 586.476 590.036 C 587.039 590.055 590.185 590.712 593.466 591.496 C 600.732 593.23 598.952 594.579 616.294 574.2 L 629.314 558.9 L 632.915 562.417 L 636.517 565.934 L 643.759 557.927 C 647.741 553.523 651 549.509 651 549.007 C 651 548.479 659.349 548.179 670.75 548.297 C 690.08 548.496 690.634 548.444 696.779 545.855 C 706.957 541.566 713.83 536.974 722.001 529 C 730.829 520.385 737.072 511.561 741.444 501.519 C 744.409 494.709 744.499 494.054 744.477 479.5 C 744.451 462.041 743.043 455.192 736.766 442 C 731.081 430.05 720.034 418.982 708 413.179 C 693.679 406.272 677.177 403.79 663.203 406.441 M 691.424 434.019 C 681.31 439.026 680.264 453.292 689.588 459.055 C 694.383 462.018 702.565 462.609 706.98 460.311 C 712.001 457.698 715 452.72 715 447 C 715 435.256 702.656 428.459 691.424 434.019 M 598.204 447.75 C 595.531 453.966 594.64 457.665 595.669 458.272 C 596.126 458.541 597.648 455.215 599.052 450.881 C 601.876 442.161 601.386 440.35 598.204 447.75 M 594.236 461.25 C 594.504 462.762 594.363 464 593.924 464 C 593.485 464 593.21 468.163 593.313 473.25 C 593.49 481.996 593.332 482.772 590.414 487.5 C 587.818 491.706 581.907 502.417 569.444 525.5 C 563.884 535.798 560.321 542.328 554.782 552.372 C 551.485 558.352 548.706 563.798 548.607 564.475 C 548.385 565.982 538.482 577.668 527 589.97 C 526.175 590.854 520.17 597.539 513.655 604.826 C 504.577 614.98 501.385 617.94 499.989 617.497 C 498.988 617.179 497.879 617.387 497.525 617.959 C 497.142 618.579 497.938 619 499.489 619 C 502.666 619 507.306 614.306 540.595 577.416 C 546.593 570.769 557.502 558.742 564.837 550.689 C 572.173 542.636 579.095 534.878 580.219 533.448 L 582.264 530.849 L 580.132 527.965 C 578.959 526.379 578 524.63 578 524.078 C 578 523.527 582.163 518.719 587.25 513.394 L 596.5 503.712 L 596.336 497.134 C 596.245 493.517 595.795 490.433 595.336 490.28 C 594.876 490.128 594.76 483.365 595.078 475.252 C 595.424 466.414 595.274 460.099 594.703 459.5 C 594.091 458.859 593.924 459.487 594.236 461.25" stroke-linecap="round"/>
</g>
		<g transform="matrix(1 0 0 1 -9.5155 -12.6638)">
<path style="stroke: none; stroke-width: 1; stroke-dasharray: none; stroke-linecap: butt; stroke-dashoffset: 0; stroke-linejoin: miter; stroke-miterlimit: 4; is-custom-font: none; font-file-url: none; fill: rgb(77,39,183); fill-rule: evenodd; opacity: 1;" transform=" translate(-470.4845, -330.3362)" d="M 444.325 36.095 C 407.48 40.389 373.541 55.413 351.977 76.977 C 333.918 95.036 321.055 120.489 316.337 147.502 C 314.803 156.283 314.585 165.169 314.545 220.5 L 314.5 283.5 L 338.25 283.768 L 362 284.036 L 362 222.649 C 362 156.194 362.325 151.151 367.502 137.398 C 371.406 127.026 376.664 119.222 386.007 109.929 C 393.323 102.652 396.2 100.581 405.062 96.212 C 424.56 86.598 443.312 82.702 470.5 82.616 C 498.658 82.527 518.805 86.736 538.5 96.821 C 553.848 104.679 566.856 119.686 573.376 137.056 C 579.257 152.722 579.29 153.168 579.729 221.25 L 580.134 284 L 603.067 284 L 626 284 L 626 218.407 C 626 156.583 625.884 152.246 623.984 142.923 C 618.955 118.245 606.174 93.919 589.594 77.469 C 567.827 55.872 531.286 40.239 492.789 36.055 C 481.638 34.843 454.881 34.865 444.325 36.095 M 310 293.124 C 297.808 295.143 287.391 303.446 282.804 314.798 L 280.5 320.5 L 280.5 453.5 L 280.5 586.5 L 282.878 591.76 C 285.768 598.155 294.179 606.234 302.539 610.646 C 313.894 616.638 331.898 621.37 354 624.17 C 368.186 625.967 437.75 625.959 455 624.158 C 479.274 621.624 488.986 620.175 490.654 618.838 C 491.289 618.33 492.928 618.195 494.295 618.538 C 495.719 618.895 497.078 618.682 497.475 618.04 C 497.856 617.423 498.967 617.172 499.943 617.482 C 500.921 617.792 502.281 617.366 502.972 616.534 C 503.662 615.702 504.738 615.314 505.363 615.671 C 505.988 616.028 506.166 615.952 505.759 615.502 C 504.715 614.35 506.985 611.884 508.363 612.671 C 508.988 613.028 509.176 612.962 508.78 612.523 C 507.987 611.646 511.688 605.896 512.805 606.268 C 513.187 606.396 513.667 606.05 513.871 605.5 C 514.331 604.263 517.802 600.069 523.867 593.423 C 542.295 573.229 548.364 566.127 548.607 564.475 C 548.706 563.798 551.485 558.352 554.782 552.372 C 560.321 542.328 563.884 535.798 569.444 525.5 C 581.907 502.417 587.818 491.706 590.414 487.5 C 593.332 482.772 593.49 481.996 593.313 473.25 C 593.21 468.163 593.485 464 593.924 464 C 594.363 464 594.495 462.808 594.216 461.351 C 593.844 459.402 594.041 458.907 594.962 459.477 C 595.868 460.036 596.038 459.695 595.577 458.243 C 594.856 455.971 598.355 445.788 600.644 443.499 C 601.468 442.675 601.874 442 601.546 442 C 601.217 442 601.647 440.65 602.5 439 C 604.288 435.543 605.619 434.868 603.98 438.25 C 602.963 440.349 602.989 440.376 604.376 438.653 C 605.194 437.637 605.592 436.101 605.261 435.239 C 604.832 434.121 605.039 433.906 605.985 434.49 C 606.825 435.01 607.069 434.921 606.653 434.247 C 605.217 431.923 618.996 417.443 629.187 410.566 C 632.578 408.278 634.823 405.62 637.305 400.952 C 639.193 397.403 642.221 391.8 644.036 388.5 C 647.874 381.52 651.339 375.135 654.347 369.5 L 656.482 365.5 L 657.084 370.5 C 657.415 373.251 657.82 366.503 657.985 355.5 C 658.165 343.451 658.569 337.09 659 339.5 C 659.563 342.645 659.747 341.63 659.858 334.75 C 659.954 328.838 659.634 326 658.872 326 C 658.116 326 657.955 324.68 658.384 322 C 658.74 319.773 658.617 318 658.105 318 C 657.6 318 657.441 317.03 657.751 315.844 C 658.171 314.237 657.98 313.894 657.003 314.498 C 656.13 315.038 655.932 314.919 656.41 314.146 C 657.303 312.701 656.155 308.786 655.041 309.475 C 654.593 309.752 654.288 309.196 654.363 308.239 C 654.439 307.277 653.908 306.623 653.176 306.775 C 652.447 306.926 652.104 306.641 652.413 306.141 C 653.419 304.514 644.487 297.33 638.419 294.885 L 632.5 292.5 L 474 292.356 C 382.58 292.274 313.172 292.598 310 293.124 M 465.5 422.93 C 456.965 424.995 449.683 430.527 445.473 438.144 C 438.57 450.636 443.853 468.662 456.49 475.735 C 459.368 477.345 460.091 485.874 459.374 509.75 L 458.707 532 L 470.853 532 L 483 532 L 483 503.5 C 483 481.38 483.28 474.994 484.25 474.975 C 487.415 474.912 494.893 467.919 497.506 462.578 C 507.801 441.536 488.325 417.409 465.5 422.93 M 653.749 558.25 C 652.851 558.938 650.176 562.023 647.805 565.107 C 645.434 568.19 642.108 571.88 640.413 573.306 L 637.333 575.898 L 633.564 573.216 L 629.795 570.535 L 626.663 574.517 C 624.94 576.708 619.89 582.325 615.441 587 C 610.992 591.675 606.514 596.787 605.489 598.36 C 603.802 600.95 603.232 601.167 599.473 600.651 L 595.32 600.082 L 594.222 605.291 C 593.619 608.156 592.833 611.667 592.476 613.093 L 591.827 615.686 L 607.857 616.371 C 632.517 617.426 641.82 615.233 650.804 606.249 C 653.2 603.853 656.046 599.889 657.129 597.441 C 659.755 591.505 660.976 579.784 660.273 567.25 C 659.732 557.594 659.574 557 657.54 557 C 656.353 557 654.647 557.563 653.749 558.25" stroke-linecap="round"/>
</g>
</g>
</g>
</svg>